<?xml version="1.0" encoding="UTF-8" standalone="no"?>
<svg
    xmlns:dc="http://purl.org/dc/elements/1.1/"
    xmlns:cc="http://creativecommons.org/ns#"
    xmlns:rdf="http://www.w3.org/1999/02/22-rdf-syntax-ns#"
    xmlns:svg="http://www.w3.org/2000/svg"
    xmlns="http://www.w3.org/2000/svg"
    id="svg8"
    version="1.1"
    viewBox="0 0 63.02375 60.351456"
    height="60.351456mm"
    width="63.02375mm"
>
  <g transform="translate(-45.957557,-37.014748)" id="layer1">
    <g transform="matrix(0.26458333,0,0,0.26458333,39.55599,14.741885)" id="g3814">
      <g transform="translate(959.7949,625.3809)" id="g3682">
        <path style="fill:#f58a33" d="m -697.4,-342 c 0,15.9 -13,28.9 -28.9,28.9 h -180.4 c -15.9,0 -28.9,-13 -28.9,-28.9 v -170.3 c 0,-15.9 13,-28.9 28.9,-28.9 h 180.4 c 15.9,0 28.9,13 28.9,28.9 z" id="path3680"/>
      </g>
      <g transform="translate(944.4714,634.2228)" id="g3686">
        <path style="fill:#ffffff" d="m -861.3,-454.2 c 0,-3.1 2.7,-5.7 5.9,-5.7 h 14.9 c 1.3,0 2.3,-0.6 3.5,-1.4 9.6,-6.5 21.2,-10.3 33.8,-10.3 32.2,0 58.2,24.9 58.2,55.8 v 51.1 c 0,3.1 -2.7,5.7 -5.9,5.7 h -19 c -3.3,0 -5.9,-2.6 -5.9,-5.7 v -51.1 c 0,-14.5 -12.3,-26.3 -27.4,-26.3 -15.2,0 -27.4,11.8 -27.4,26.3 v 51.1 c 0,3.1 -2.7,5.7 -6,5.7 h -19 c -3.3,0 -5.9,-2.6 -5.9,-5.7 v -89.5 z" id="path3684"/>
      </g>
      <g transform="translate(946.1819,637.7646)" id="g3690">
        <path style="fill:#ffffff" d="m -843,-499.2 c 11.6,-5.2 24.6,-8 38.3,-8 30.9,0 58.2,14.7 74.7,37.2 1.3,1.9 3.9,2.3 5.8,0.9 1.9,-1.3 2.3,-4 0.9,-5.9 -18,-24.6 -47.8,-40.6 -81.4,-40.6 -14.8,0 -29.1,3.1 -41.8,8.8 -2.1,0.9 -3,3.4 -2.2,5.5 1.2,2.1 3.7,3.1 5.7,2.1" id="path3688"/>
      </g>
      <g transform="translate(954.7923,634.1957)" id="g3694">
        <path style="fill:#ffffff" d="m -750.9,-453.9 c -1.2,0 -2.5,-0.6 -3.3,-1.6 -13.5,-18.3 -35.7,-29.3 -59.2,-29.3 -10.5,0 -20.6,2.1 -30.1,6.2 -2.1,0.9 -4.5,0 -5.5,-2.2 -0.9,-2.1 0,-4.5 2.2,-5.5 10.5,-4.6 21.8,-6.9 33.4,-6.9 26.1,0 50.7,12.2 65.8,32.7 1.3,1.9 0.9,4.4 -0.9,5.8 -0.7,0.5 -1.5,0.8 -2.4,0.8" id="path3692"/>
      </g>
    </g>
  </g>
</svg>
