<?xml version="1.0" encoding="UTF-8"?>
<svg xmlns="http://www.w3.org/2000/svg" height="500" version="1.1" viewBox="0 0 500 500" width="500">
  <style><![CDATA[
    svg {
      fill: transparent;
    }

    #background {
      fill: url(#background-gradient);
      rx: 12.5%;
      ry: 12.5%;
    }

    .base-squid {
      transform-origin: center;
      transform: scale(20);
      x: 250;
      y: 239.3;
    }

    #squid {
      fill: url(#squid-gradient);
    }

    #squid-background {
      fill: transparent;
      stroke: rgba(0, 0, 0, 0.333);
      stroke-width: 1;
    }

    .base-chart {
      transform-origin: center;
      transform: rotate(10deg) scale(25);
      x: 247;
      y: 250.8;
    }

    #chart {
      fill: url(#chart-gradient);
    }

    #chart-background {
      fill: transparent;
      stroke: #fff;
      stroke-width: 0.45;
    }
  ]]></style>
  <defs>
    <linearGradient id="background-gradient" x1="0" x2="0" y1="0" y2="1">
      <stop offset="0%" stop-color="#1e1e85"/>
      <stop offset="100%" stop-color="#191970"/>
    </linearGradient>
    <linearGradient id="squid-gradient" x1="0.3" x2="0.7" y1="0" y2="1">
      <stop offset="0%" stop-color="#ffa500"/>
      <stop offset="100%" stop-color="#ff8c00"/>
    </linearGradient>
    <linearGradient id="chart-gradient" x1="0" x2="1.0" y1="0" y2="0">
      <stop offset="0%" stop-color="#228b22"/>
      <stop offset="100%" stop-color="#32cd32"/>
    </linearGradient>
    <g id="squid-shape">
      <path d="m 0,0 c -0.241697,-0.0095 -0.422759,0.06643 -0.575159,0.142627 -0.609598,0.2794 -0.964981,0.635163 -1.574581,1.117761 -0.838198,0.685798 -1.904832,1.651101 -2.89543,2.641699 -2.666994,2.666996 -4.419945,4.952984 -4.902543,6.85798 -0.0762,0.355598 -0.15217,0.660203 -0.07596,1.066601 0.1524,0.812798 0.83806,1.270017 1.54926,1.498617 0.507998,0.1524 1.600444,0.304936 2.260844,0.457336 0.1778,0.508 0.330179,1.041183 0.507979,1.574581 0.1524,0.4572 0.2286,0.86365 0,1.32085 -0.3048,0.609598 -0.406615,1.143385 -0.432015,1.879985 -0.0508,0.8636 0.38132,1.65061 1.067118,2.13321 0.2794,0.2286 0.736605,0.45752 1.168405,0.22892 0.0508,-0.0254 0.152288,-0.12712 0.203088,-0.12712 0.3556,-0.1778 0.558511,-0.3557 0.761711,-0.6351 0.0508,-0.0508 0.126966,-0.10134 0.177766,-0.25374 0.0508,0.5588 0.101613,0.99045 0.330213,1.21905 0.2286,0.2286 0.66072,0.45698 1.067118,0.40618 0.635,-0.0762 1.066412,-0.58408 1.295012,-1.04128 0.101598,0.2032 0.20365,0.3809 0.35605,0.5333 0.1778,0.2032 0.330239,0.50798 0.990637,0.50798 0.3556,0 0.53291,-0.12681 0.659908,-0.22841 0.4572,-0.3302 0.88924,-0.96542 1.09244,-1.60042 -0.0508,0.254 -0.02528,0.55895 0.127124,0.78755 0.127,0.1778 0.254013,0.27941 0.330213,0.33021 0.0254,0.0254 0.127012,0.0763 0.330212,0.12712 0.533398,0.1524 0.965204,-0.20313 1.168404,-0.35553 0.4572,-0.381 0.838035,-0.78742 0.888835,-1.49862 l 0.02532,-0.17776 c 0,-1.016 -0.101658,-1.600133 -0.482658,-2.362133 l -0.101285,-0.254248 c -0.0508,-0.584198 0.304779,-1.320797 0.507979,-2.006595 l 0.152445,-0.50798 c 1.574798,-0.330198 3.073381,-0.27934 3.68298,-1.523938 0.1524,-0.330198 0.177845,-0.660516 0.152445,-0.965316 -1.351908,-4.111043 -3.790971,-6.625786 -7.112227,-9.499678 -0.5842,-0.508 -1.244551,-1.015657 -1.854151,-1.447457 -0.228598,-0.1524 -0.20346,-0.203291 -0.58446,-0.304891 -0.09525,-0.0254 -0.182468,-0.03817 -0.263033,-0.04134 z"/>
    </g>
    <g id="chart-shape">
      <path d="m 12.313615,0.11337801 c 0.21387,0.17500137 0.245222,0.49031049 0.07,0.704 l -4.5,5.49999999 c -0.1872715,0.2285781 -0.5308618,0.2457577 -0.74,0.037 l -2.587,-2.587 -3.65600001,5.027 c -0.397012,0.5048311 -1.16626294,-0.05497 -0.808,-0.588 l 4.00000001,-5.5 c 0.1805369,-0.2486954 0.5405852,-0.2771953 0.758,-0.06 l 2.609,2.61 4.15,-5.07299999 c 0.175001,-0.21387023 0.49031,-0.24522199 0.704,-0.07 z"/>
    </g>
  </defs>
  <rect id="background" x="0" y="0" width="500" height="500"/>
  <use class="base-squid" id="squid-background" href="#squid-shape"/>
  <use class="base-squid" id="squid" href="#squid-shape"/>
  <use class="base-chart" id="chart-background" href="#chart-shape"/>
  <use class="base-chart" id="chart" href="#chart-shape"/>
</svg>
