<?xml version="1.0" encoding="UTF-8" ?>
<svg
  height="1024"
  version="1.1"
  width="1024"
  xmlns="http://www.w3.org/2000/svg"
>
  <g id="squid-shape">
    <path
      d="M724.1224 768.69679c-2.34666-26.98658 14.07996-61.01315 23.46659-92.69306l7.03998-23.4666c72.74646-15.25329 141.97293-12.90663 170.13285-70.3998 7.03998-15.25329 8.21331-30.50658 7.03998-44.58654-7.03998-76.26644-64.53315-159.57287-158.39955-268.69256-34.02656-39.89322-130.23962-136.10627-170.13284-170.13284-26.98659-23.466599-57.49317-46.933198-85.65309-66.879808-10.55997-7.039979-9.38664-9.386639-26.98659-14.079959-17.59994-4.69332-29.33324 0-38.71988 4.69332-28.15992 12.906629-44.58654 29.333249-72.74646 51.626518-38.71989 31.679909-87.99975 76.266449-133.75962 122.026319C122.20413 319.31142 41.244361 424.91112 18.951092 512.91086c-3.51999 16.42662-7.03998 30.50658-3.51999 49.27986 7.03998 37.54656 38.719889 58.6665 71.573128 69.22647 23.4666 7.03998 73.91979 14.07996 104.42637 21.11994 8.21331 23.4666 15.25329 48.10653 23.46659 72.74646 7.03998 21.11994 10.55997 39.89321 0 61.01315-14.07995 28.15992-18.77327 52.79985-19.9466 86.82642-2.34666 39.89322 17.59994 76.26645 49.27985 98.55972 12.90663 10.55997 34.02657 21.11994 53.97318 10.55997 2.34666-1.17333 7.03998-5.86665 9.38664-5.86665 16.42662-8.21331 25.81326-16.42662 35.1999-29.33325 2.34666-2.34666 5.86665-4.69332 8.21331-11.7333 2.34666 25.81326 4.69332 45.75987 15.25329 56.31984 10.55997 10.56001 30.50658 21.11991 49.27986 18.77331 29.33325-3.52 49.27986-26.98662 59.83983-48.10656 4.69331 9.38664 9.38663 17.59995 16.42661 24.63993 8.21331 9.38664 15.25329 23.46663 45.75987 23.46663 16.42662 0 24.63993-5.8667 30.50658-10.56 21.11994-15.25329 41.06655-44.58654 50.45319-73.91979-2.34666 11.7333-1.17333 25.81326 5.86665 36.37323 5.86665 8.21331 11.7333 12.90663 15.25329 15.25329 1.17333 1.17333 5.86665 3.51999 15.25329 5.86665 24.63993 7.03998 44.58654-9.38664 53.97318-16.42662 21.11994-17.59995 38.71988-36.37323 41.06654-69.22647l1.17333-8.21331c0-46.9332-4.69332-73.91979-22.29326-109.11969z"
      id="squid-path"
      style="fill:#666"
    />
  </g>
  <g id="pie-chart">
    <path
      d="M461.29 288c9.54 0 17.39 8.39 16.06 17.84C460.53 424.92 356.57 516 231.93 511.87 107.91 507.8 4.2 404.1.13 280.07c-4.09-124.64 87-228.6 206-245.42 9.48-1.33 17.87 6.51 17.87 16.06V288Z"
      id="pie-chart-1"
      style="fill:#202020"
      transform="translate(489.18696 488.09883) scale(1.0151)"
    />
    <path
      d="M512 223.2c.62 9.11-7 16.8-16.19 16.8H272V16.24C272 7.1 279.68-.59 288.8 0 408.26 8.28 503.72 103.74 512 223.2Z"
      id="pie-chart-2"
      style="fill:#f5a101"
      transform="translate(489.18696 488.09883) scale(1.0151)"
    />
  </g>
</svg>
